<svg width="18" height="10" viewBox="0 0 18 10" fill="none" xmlns="http://www.w3.org/2000/svg">
<path opacity="0.3" d="M17.7617 3.80163L16.4844 2.33534C16.8262 1.88556 17.0241 1.56172 17.0511 1.50775C17.303 1.08495 17.159 0.527224 16.7362 0.275346C16.3135 0.0234687 15.7557 0.158403 15.5038 0.590193C15.4769 0.635171 12.9041 4.86312 8.98201 4.86312C5.05991 4.86312 2.67607 0.815084 2.51415 0.536219C2.38821 0.257355 2.12734 0.0504554 1.7945 0.00547727C1.29075 -0.0484965 0.85895 0.302333 0.795981 0.797092C0.751002 1.15692 1.11981 1.75962 1.52462 2.30836L0.220269 3.80163C-0.103573 4.17945 -0.0676087 4.74617 0.310208 5.07001C0.481125 5.22294 0.688024 5.29491 0.903919 5.29491C1.1558 5.29491 1.40767 5.18696 1.57859 4.98905L2.71205 3.69368C3.17982 4.17045 3.71956 4.65622 4.34026 5.097L3.22481 7.13901C2.99092 7.5708 3.14384 8.11953 3.58463 8.36242C3.71956 8.43438 3.87249 8.47036 4.01643 8.47036C4.33127 8.47036 4.6461 8.29945 4.80802 8.00259L5.90549 5.99656C6.57117 6.29342 7.30883 6.50032 8.10044 6.59927V8.44337C8.10044 8.93813 8.50524 9.34294 9 9.34294C9.49476 9.34294 9.89957 8.93813 9.89957 8.44337V6.60827C10.6912 6.50932 11.4198 6.28442 12.0855 5.98757L13.192 8.01159C13.3539 8.30844 13.6597 8.47936 13.9836 8.47936C14.1275 8.47936 14.2804 8.44337 14.4154 8.37141C14.8472 8.13752 15.0091 7.58879 14.7752 7.148L13.6597 5.106C14.2984 4.66521 14.8472 4.17945 15.3149 3.70268L16.4214 4.97106C16.6013 5.17796 16.8442 5.27691 17.0961 5.27691C17.303 5.27691 17.5189 5.20495 17.6898 5.05202C18.0676 4.72818 18.1036 4.16146 17.7797 3.78364L17.7617 3.80163Z" fill="black"/>
</svg>
