<svg width="20" height="20" viewBox="0 0 20 20" fill="none" xmlns="http://www.w3.org/2000/svg">
<path fill-rule="evenodd" clip-rule="evenodd" d="M0.379308 6.72206C1.11753 3.57488 3.57488 1.11753 6.72206 0.379308C8.87814 -0.126436 11.1219 -0.126436 13.278 0.379307C16.4251 1.11753 18.8824 3.57488 19.6207 6.72208C20.1264 8.87814 20.1264 11.1219 19.6207 13.278C18.8824 16.4251 16.4251 18.8824 13.278 19.6207C11.1219 20.1264 8.87814 20.1264 6.72207 19.6207C3.57488 18.8824 1.11753 16.4251 0.379307 13.278C-0.126436 11.1219 -0.126436 8.87814 0.379308 6.72206ZM17.6735 7.17881C17.1088 4.77113 15.2289 2.89121 12.8212 2.32646L12.4225 2.23985C10.6901 1.8934 8.90192 1.92227 7.1788 2.32646C4.77114 2.89121 2.89121 4.77114 2.32646 7.1788C1.89118 9.03446 1.89118 10.9655 2.32646 12.8212C2.89121 15.2289 4.77113 17.1088 7.17881 17.6735C9.03446 18.1088 10.9655 18.1088 12.8212 17.6735C15.2289 17.1088 17.1088 15.2289 17.6735 12.8212C18.1088 10.9655 18.1088 9.03446 17.6735 7.17881Z" fill="#F24C4C"/>
<path d="M10 5.5C10.5128 5.5 10.9355 5.88604 10.9933 6.38338L11 6.5V11.084L11.7929 10.2929C12.1834 9.90237 12.8166 9.90237 13.2071 10.2929C13.5676 10.6534 13.5953 11.2206 13.2903 11.6129L13.2071 11.7071L10.7071 14.2071C10.6717 14.2425 10.6343 14.2747 10.5953 14.3037L10.4841 14.3753L10.3713 14.4288L10.2293 14.4736L10.1149 14.4935L10 14.5L9.88338 14.4933L9.77071 14.4736L9.65838 14.4401L9.57678 14.4063L9.47929 14.354L9.3871 14.2903C9.3503 14.2612 9.32078 14.235 9.29289 14.2071L6.79289 11.7071C6.40237 11.3166 6.40237 10.6834 6.79289 10.2929C7.15338 9.93241 7.72061 9.90468 8.1129 10.2097L8.20711 10.2929L9 11.085V6.5C9 5.94772 9.44772 5.5 10 5.5Z" fill="#F24C4C"/>
</svg>
