<svg width="27" height="35" viewBox="0 0 27 35" fill="none" xmlns="http://www.w3.org/2000/svg">
<path d="M13.7459 -2.38419e-06C16.9792 -2.38419e-06 19.5126 0.333332 21.3459 1C23.1792 1.66667 24.4792 2.81667 25.2459 4.45C26.0459 6.08333 26.4459 8.36666 26.4459 11.3C26.4459 14.2333 26.0626 16.5167 25.2959 18.15C24.5626 19.7833 23.3459 20.9333 21.6459 21.6C19.9459 22.2333 17.6459 22.55 14.7459 22.55C13.2126 22.55 11.7126 22.4833 10.2459 22.35C8.77923 22.2167 7.41257 22.05 6.1459 21.85C4.87923 21.65 3.7959 21.45 2.8959 21.25C1.9959 21.0167 1.37923 20.8 1.0459 20.6L1.1959 16.8C3.16257 16.8 5.1959 16.8 7.2959 16.8C9.42923 16.8 11.5292 16.8 13.5959 16.8C14.9292 16.7667 15.9626 16.6 16.6959 16.3C17.4626 16 17.9959 15.45 18.2959 14.65C18.6292 13.85 18.7959 12.7333 18.7959 11.3C18.7959 9.83333 18.6292 8.7 18.2959 7.9C17.9959 7.1 17.4626 6.55 16.6959 6.25C15.9626 5.91666 14.9292 5.75 13.5959 5.75C10.5292 5.75 7.8959 5.76666 5.6959 5.8C3.4959 5.83333 2.01257 5.9 1.2459 6L0.495899 0.499997C1.8959 0.333331 3.21257 0.216664 4.4459 0.149999C5.67923 0.0833309 7.01257 0.049997 8.4459 0.049997C9.91257 0.0166641 11.6792 -2.38419e-06 13.7459 -2.38419e-06ZM8.1459 0.499997V35H0.495899V0.499997H8.1459Z" fill="#009A80"/>
</svg>
